<?xml version="1.0" encoding="UTF-8" standalone="no" ?>
<!DOCTYPE svg PUBLIC "-//W3C//DTD SVG 1.1//EN" "http://www.w3.org/Graphics/SVG/1.1/DTD/svg11.dtd">
<svg xmlns="http://www.w3.org/2000/svg" xmlns:xlink="http://www.w3.org/1999/xlink" version="1.1" width="1080" height="1080" viewBox="0 0 1080 1080" xml:space="preserve">
<desc>Created with Fabric.js 5.2.4</desc>
<defs>
</defs>
<g transform="matrix(1 0 0 1 540 540)" id="6f7a4655-fba2-48ad-9136-088d86bccf81"  >
<rect style="stroke: none; stroke-width: 1; stroke-dasharray: none; stroke-linecap: butt; stroke-dashoffset: 0; stroke-linejoin: miter; stroke-miterlimit: 4; fill: rgb(255,255,255); fill-rule: nonzero; opacity: 1; visibility: hidden;" vector-effect="non-scaling-stroke"  x="-540" y="-540" rx="0" ry="0" width="1080" height="1080" />
</g>
<g transform="matrix(1 0 0 1 540 540)" id="bb4191cc-e30f-4aa4-aa71-99a27b7bb840"  >
</g>
<g transform="matrix(1 0 0 1 540 540)" id="f3539ae4-aeb4-4812-858e-79a1455463dc"  >
<path style="stroke: rgb(56,182,255); stroke-width: 0; stroke-dasharray: none; stroke-linecap: butt; stroke-dashoffset: 0; stroke-linejoin: miter; stroke-miterlimit: 4; fill: rgb(56,182,255); fill-rule: nonzero; opacity: 1;" vector-effect="non-scaling-stroke"  transform=" translate(-256, -256)" d="M 160 96 C 160 42.98066401624383 202.98066401624382 0 256 0 C 309.01933598375615 0 352 42.98066401624381 352 95.99999999999997 C 352 149.01933598375618 309.01933598375615 192 256 192 C 202.98066401624382 192 160 149.01933598375618 160 96 z M 240 248 L 240 512 L 191.6 487.8 C 170.7 477.40000000000003 148.1 470.8 124.8 468.5 L 28.799999999999997 458.9 C 12.5 457.2 0 443.5 0 427 L 0 224 C 0 206.3 14.3 192 32 192 L 62.3 192 C 125.9 192 187.89999999999998 211.6 240 248 z M 272 512 L 272 248 C 324.1 211.6 386.1 192 449.7 192 L 480 192 C 497.7 192 512 206.3 512 224 L 512 427 C 512 443.4 499.5 457.2 483.2 458.8 L 387.2 468.40000000000003 C 364 470.70000000000005 341.3 477.3 320.4 487.70000000000005 L 272 512 z" stroke-linecap="round" />
</g>
<g transform="matrix(NaN NaN NaN NaN 0 0)"  >
<g style=""   >
</g>
</g>
<g transform="matrix(NaN NaN NaN NaN 0 0)"  >
<g style=""   >
</g>
</g>
<g transform="matrix(NaN NaN NaN NaN 0 0)"  >
<g style=""   >
</g>
</g>
<g transform="matrix(NaN NaN NaN NaN 0 0)"  >
<g style=""   >
</g>
</g>
</svg>