<?xml version="1.0" encoding="UTF-8" standalone="no" ?>
<!DOCTYPE svg PUBLIC "-//W3C//DTD SVG 1.1//EN" "http://www.w3.org/Graphics/SVG/1.1/DTD/svg11.dtd">
<svg xmlns="http://www.w3.org/2000/svg" xmlns:xlink="http://www.w3.org/1999/xlink" version="1.1" width="1080" height="1080" viewBox="0 0 1080 1080" xml:space="preserve">
<desc>Created with Fabric.js 5.2.4</desc>
<defs>
</defs>
<g transform="matrix(1 0 0 1 540 540)" id="f2764a50-b380-44cf-ac69-b2fb8a1765ed"  >
</g>
<g transform="matrix(1 0 0 1 540 540)" id="5f9d4544-cac1-4658-8ae2-4513b6d26782"  >
<rect style="stroke: none; stroke-width: 1; stroke-dasharray: none; stroke-linecap: butt; stroke-dashoffset: 0; stroke-linejoin: miter; stroke-miterlimit: 4; fill: rgb(255,255,255); fill-rule: nonzero; opacity: 1; visibility: hidden;" vector-effect="non-scaling-stroke"  x="-540" y="-540" rx="0" ry="0" width="1080" height="1080" />
</g>
<g transform="matrix(1 0 0 1 540 540)"  >
<path style="stroke: rgb(56,182,255); stroke-width: 0; stroke-dasharray: none; stroke-linecap: butt; stroke-dashoffset: 0; stroke-linejoin: miter; stroke-miterlimit: 4; fill: rgb(56,182,255); fill-rule: nonzero; opacity: 1;" vector-effect="non-scaling-stroke"  transform=" translate(-224, -256)" d="M 224 256 C 294.69244797834153 256 352 198.69244797834156 352 128 C 352 57.30755202165844 294.69244797834153 0 224 0 C 153.30755202165844 0 96 57.30755202165844 96 128 C 96 198.69244797834156 153.30755202165844 256 224 256 z M 128 311.2 C 54 332.9 0 401.3 0 482.3 C 0 498.7 13.3 512 29.7 512 L 418.3 512 C 434.7 512 448 498.7 448 482.3 C 448 401.3 394 332.9 320 311.20000000000005 L 320 362 C 347.6 369.1 368 394.2 368 424 L 368 464 C 368 472.8 360.8 480 352 480 L 336 480 C 327.2 480 320 472.8 320 464 C 320 455.2 327.2 448 336 448 L 336 424 C 336 406.3 321.7 392 304 392 C 286.3 392 272 406.3 272 424 L 272 448 C 280.8 448 288 455.2 288 464 C 288 472.8 280.8 480 272 480 L 256 480 C 247.2 480 240 472.8 240 464 L 240 424 C 240 394.2 260.4 369.1 288 362 L 288 304.9 C 282 304.29999999999995 275.9 304 269.7 304 L 178.3 304 C 172.10000000000002 304 166 304.3 160 304.9 L 160 370.29999999999995 C 183.1 377.19999999999993 200 398.59999999999997 200 423.99999999999994 C 200 454.8999999999999 174.9 479.99999999999994 144 479.99999999999994 C 113.1 479.99999999999994 88 454.8999999999999 88 423.99999999999994 C 88 398.59999999999997 104.9 377.19999999999993 128 370.29999999999995 L 128 311.2 z M 144 448 C 157.25483399593904 448 168 437.25483399593907 168 424 C 168 410.74516600406093 157.25483399593904 400 144 400 C 130.74516600406096 400 120 410.74516600406093 120 424 C 120 437.25483399593907 130.74516600406096 448 144 448 z" stroke-linecap="round" />
</g>
<g transform="matrix(0 0 0 0 0 0)"  >
<g style=""   >
</g>
</g>
<g transform="matrix(NaN NaN NaN NaN 0 0)"  >
<g style=""   >
</g>
</g>
<g transform="matrix(NaN NaN NaN NaN 0 0)"  >
<g style=""   >
</g>
</g>
<g transform="matrix(NaN NaN NaN NaN 0 0)"  >
<g style=""   >
</g>
</g>
<g transform="matrix(NaN NaN NaN NaN 0 0)"  >
<g style=""   >
</g>
</g>
</svg>