<?xml version="1.0" encoding="UTF-8" standalone="no" ?>
<!DOCTYPE svg PUBLIC "-//W3C//DTD SVG 1.1//EN" "http://www.w3.org/Graphics/SVG/1.1/DTD/svg11.dtd">
<svg xmlns="http://www.w3.org/2000/svg" xmlns:xlink="http://www.w3.org/1999/xlink" version="1.1" width="1080" height="1080" viewBox="0 0 1080 1080" xml:space="preserve">
<desc>Created with Fabric.js 5.2.4</desc>
<defs>
</defs>
<rect x="0" y="0" width="100%" height="100%" fill="transparent"></rect>
<g transform="matrix(1 0 0 1 540 540)" id="6f7a4655-fba2-48ad-9136-088d86bccf81"  >
<rect style="stroke: none; stroke-width: 1; stroke-dasharray: none; stroke-linecap: butt; stroke-dashoffset: 0; stroke-linejoin: miter; stroke-miterlimit: 4; fill: rgb(255,255,255); fill-rule: nonzero; opacity: 1; visibility: hidden;" vector-effect="non-scaling-stroke"  x="-540" y="-540" rx="0" ry="0" width="1080" height="1080" />
</g>
<g transform="matrix(1 0 0 1 540 540)" id="bb4191cc-e30f-4aa4-aa71-99a27b7bb840"  >
</g>
<g transform="matrix(NaN NaN NaN NaN 0 0)"  >
<g style=""   >
</g>
</g>
<g transform="matrix(NaN NaN NaN NaN 0 0)"  >
<g style=""   >
</g>
</g>
<g transform="matrix(NaN NaN NaN NaN 0 0)"  >
<g style=""   >
</g>
</g>
<g transform="matrix(NaN NaN NaN NaN 0 0)"  >
<g style=""   >
</g>
</g>
<g transform="matrix(1 0 0 1 540 540)" id="b0cb391b-c27a-4f16-bf6a-868578fec1ea"  >
<path style="stroke: rgb(56,182,255); stroke-width: 0; stroke-dasharray: none; stroke-linecap: butt; stroke-dashoffset: 0; stroke-linejoin: miter; stroke-miterlimit: 4; fill: rgb(56,182,255); fill-rule: nonzero; opacity: 1;" vector-effect="non-scaling-stroke"  transform=" translate(-320, -256)" d="M 175 389.4 C 165.2 405.4 160 423.7 160 442.5 C 150 446 139.2 448 128 448 C 75 448 32 405 32 352 L 32 64 C 14.3 64 0 49.7 0 32 C 0 14.299999999999997 14.3 0 32 0 L 96 0 L 160 0 L 224 0 C 241.7 0 256 14.3 256 32 C 256 49.7 241.7 64 224 64 L 224 309.9 L 175 389.5 z M 96 64 L 96 160 L 160 160 L 160 64 L 96 64 z M 352 0 L 480 0 L 512 0 C 529.7 0 544 14.3 544 32 C 544 49.7 529.7 64 512 64 L 512 214.9 L 629.7 406.2 C 636.4000000000001 417.09999999999997 640 429.7 640 442.59999999999997 C 640 480.9 608.9 512 570.6 512 L 261.4 512 C 223.09999999999997 512 191.99999999999997 480.9 191.99999999999997 442.6 C 191.99999999999997 429.8 195.59999999999997 417.20000000000005 202.29999999999998 406.20000000000005 L 320 214.9 L 320 64 C 302.3 64 288 49.7 288 32 C 288 14.299999999999997 302.3 0 320 0 L 352 0 z M 384 64 L 384 224 C 384 229.9 382.4 235.7 379.3 240.8 L 330.5 320 L 501.5 320 L 452.7 240.8 C 449.59999999999997 235.8 448 230 448 224 L 448 64 L 384 64 z" stroke-linecap="round" />
</g>
<g transform="matrix(NaN NaN NaN NaN 0 0)"  >
<g style=""   >
</g>
</g>
<g transform="matrix(NaN NaN NaN NaN 0 0)"  >
<g style=""   >
</g>
</g>
<g transform="matrix(NaN NaN NaN NaN 0 0)"  >
<g style=""   >
</g>
</g>
<g transform="matrix(NaN NaN NaN NaN 0 0)"  >
<g style=""   >
</g>
</g>
</svg>